<svg xmlns="http://www.w3.org/2000/svg" viewBox="0 0 64 64" role="img" aria-hidden="true">
  <path fill="#E30613" d="M8 6h9v22L8 52V6z"/>
  <path fill="#E30613" d="M17 6h8.5L35 28V6h8v52H35L25.5 30v28H17V6z"/>
  <circle cx="44" cy="32" r="18" fill="none" stroke="#1B3F7A" stroke-width="5"/>
  <path fill="#1B3F7A" d="M38 22c-4 0-7 2-9 5 3-1 6-1 9 0 2 3 2 7 0 10-3 2-7 2-10 0 2 3 5 5 9 5 6 0 11-5 11-11s-5-11-10-11z"/>
  <path fill="none" stroke="#E30613" stroke-width="3" stroke-linecap="round" d="M58 20c4 4 6 8 6 12s-2 8-6 12"/>
</svg>
